HIERARCHY
ROOT Hips
{
    OFFSET   0.000000   0.000000   0.000000
    CHANNELS 6 Xposition Yposition Zposition Zrotation Xrotation Yrotation
    JOINT Chest
    {
        OFFSET   0.000000   8.007230   0.000000
        CHANNELS 3 Zrotation Xrotation Yrotation
        JOINT Chest2
        {
            OFFSET   0.000000  22.077100   0.000000
            CHANNELS 3 Zrotation Xrotation Yrotation
            JOINT Neck
            {
                OFFSET   0.000000  23.255100   0.000000
                CHANNELS 3 Zrotation Xrotation Yrotation
                JOINT Head
                {
                    OFFSET   0.000000  14.370100   1.956600
                    CHANNELS 3 Zrotation Xrotation Yrotation
                    End Site
                    {
                        OFFSET   0.000000  19.566000   0.000000
                    }
                }
            }
            JOINT LeftCollar
            {
                OFFSET   3.911900  19.017000  -0.467063
                CHANNELS 3 Zrotation Xrotation Yrotation
                JOINT LeftShoulder
                {
                    OFFSET  10.383700   0.000000   0.000000
                    CHANNELS 3 Zrotation Xrotation Yrotation
                    JOINT LeftElbow
                    {
                        OFFSET  26.662100   0.001193   0.000980
                        CHANNELS 3 Zrotation Xrotation Yrotation
                        JOINT LeftWrist
                        {
                            OFFSET  28.869000  -0.000059  -0.000082
                            CHANNELS 3 Zrotation Xrotation Yrotation
                            JOINT LeftFinger0
                            {
                                OFFSET   2.044650  -2.323450   3.252850
                                CHANNELS 3 Zrotation Xrotation Yrotation
                                JOINT LeftFinger01
                                {
                                    OFFSET   3.088130   0.000000   0.000000
                                    CHANNELS 3 Zrotation Xrotation Yrotation
                                    JOINT LeftFinger02
                                    {
                                        OFFSET   2.639460   0.000000   0.000000
                                        CHANNELS 3 Zrotation Xrotation Yrotation
                                        End Site
                                        {
                                            OFFSET   2.582190   0.000000   0.000000
                                        }
                                    }
                                }
                            }
                            JOINT LeftFinger1
                            {
                                OFFSET   8.364480   0.000000   3.252850
                                CHANNELS 3 Zrotation Xrotation Yrotation
                                JOINT LeftFinger11
                                {
                                    OFFSET   4.646930   0.000000   0.000000
                                    CHANNELS 3 Zrotation Xrotation Yrotation
                                    JOINT LeftFinger12
                                    {
                                        OFFSET   2.323470   0.000000   0.000000
                                        CHANNELS 3 Zrotation Xrotation Yrotation
                                        End Site
                                        {
                                            OFFSET   2.273050   0.000000   0.000000
                                        }
                                    }
                                }
                            }
                            JOINT LeftFinger2
                            {
                                OFFSET   8.364490   0.000016   1.078090
                                CHANNELS 3 Zrotation Xrotation Yrotation
                                JOINT LeftFinger21
                                {
                                    OFFSET   5.111610   0.000000   0.000000
                                    CHANNELS 3 Zrotation Xrotation Yrotation
                                    JOINT LeftFinger22
                                    {
                                        OFFSET   2.788150   0.000016   0.000000
                                        CHANNELS 3 Zrotation Xrotation Yrotation
                                        End Site
                                        {
                                            OFFSET   2.727660   0.000000   0.000000
                                        }
                                    }
                                }
                            }
                            JOINT LeftFinger3
                            {
                                OFFSET   7.899780   0.000015  -1.078090
                                CHANNELS 3 Zrotation Xrotation Yrotation
                                JOINT LeftFinger31
                                {
                                    OFFSET   4.646930   0.000000   0.000000
                                    CHANNELS 3 Zrotation Xrotation Yrotation
                                    JOINT LeftFinger32
                                    {
                                        OFFSET   2.323470   0.000000   0.000000
                                        CHANNELS 3 Zrotation Xrotation Yrotation
                                        End Site
                                        {
                                            OFFSET   2.273050   0.000000   0.000000
                                        }
                                    }
                                }
                            }
                            JOINT LeftFinger4
                            {
                                OFFSET   7.435090   0.000000  -3.252850
                                CHANNELS 3 Zrotation Xrotation Yrotation
                                JOINT LeftFinger41
                                {
                                    OFFSET   3.717550   0.000000   0.000000
                                    CHANNELS 3 Zrotation Xrotation Yrotation
                                    JOINT LeftFinger42
                                    {
                                        OFFSET   1.858770   0.000000   0.000000
                                        CHANNELS 3 Zrotation Xrotation Yrotation
                                        End Site
                                        {
                                            OFFSET   1.818440   0.000000   0.000000
                                        }
                                    }
                                }
                            }
                        }
                    }
                }
            }
            JOINT RightCollar
            {
                OFFSET  -3.911910  19.017000  -0.467062
                CHANNELS 3 Zrotation Xrotation Yrotation
                JOINT RightShoulder
                {
                    OFFSET -10.383700   0.000014   0.000000
                    CHANNELS 3 Zrotation Xrotation Yrotation
                    JOINT RightElbow
                    {
                        OFFSET -26.662100   0.001225   0.001091
                        CHANNELS 3 Zrotation Xrotation Yrotation
                        JOINT RightWrist
                        {
                            OFFSET -28.869000  -0.000020  -0.000085
                            CHANNELS 3 Zrotation Xrotation Yrotation
                            JOINT RightFinger0
                            {
                                OFFSET  -2.044650  -2.323490   3.252850
                                CHANNELS 3 Zrotation Xrotation Yrotation
                                JOINT RightFinger01
                                {
                                    OFFSET  -3.088130   0.000000   0.000000
                                    CHANNELS 3 Zrotation Xrotation Yrotation
                                    JOINT RightFinger02
                                    {
                                        OFFSET  -2.639460   0.000000   0.000000
                                        CHANNELS 3 Zrotation Xrotation Yrotation
                                        End Site
                                        {
                                            OFFSET  -2.582190   0.000000   0.000000
                                        }
                                    }
                                }
                            }
                            JOINT RightFinger1
                            {
                                OFFSET  -8.364480   0.000000   3.252850
                                CHANNELS 3 Zrotation Xrotation Yrotation
                                JOINT RightFinger11
                                {
                                    OFFSET  -4.646930   0.000000   0.000000
                                    CHANNELS 3 Zrotation Xrotation Yrotation
                                    JOINT RightFinger12
                                    {
                                        OFFSET  -2.323470   0.000000   0.000000
                                        CHANNELS 3 Zrotation Xrotation Yrotation
                                        End Site
                                        {
                                            OFFSET  -2.273050   0.000000   0.000000
                                        }
                                    }
                                }
                            }
                            JOINT RightFinger2
                            {
                                OFFSET  -8.364480   0.000000   1.078090
                                CHANNELS 3 Zrotation Xrotation Yrotation
                                JOINT RightFinger21
                                {
                                    OFFSET  -5.111620   0.000000   0.000000
                                    CHANNELS 3 Zrotation Xrotation Yrotation
                                    JOINT RightFinger22
                                    {
                                        OFFSET  -2.788160   0.000000   0.000000
                                        CHANNELS 3 Zrotation Xrotation Yrotation
                                        End Site
                                        {
                                            OFFSET  -2.727660   0.000000   0.000000
                                        }
                                    }
                                }
                            }
                            JOINT RightFinger3
                            {
                                OFFSET  -7.899780   0.000000  -1.078090
                                CHANNELS 3 Zrotation Xrotation Yrotation
                                JOINT RightFinger31
                                {
                                    OFFSET  -4.646930   0.000000   0.000000
                                    CHANNELS 3 Zrotation Xrotation Yrotation
                                    JOINT RightFinger32
                                    {
                                        OFFSET  -2.323470   0.000000   0.000000
                                        CHANNELS 3 Zrotation Xrotation Yrotation
                                        End Site
                                        {
                                            OFFSET  -2.273050   0.000000   0.000000
                                        }
                                    }
                                }
                            }
                            JOINT RightFinger4
                            {
                                OFFSET  -7.435090   0.000000  -3.252850
                                CHANNELS 3 Zrotation Xrotation Yrotation
                                JOINT RightFinger41
                                {
                                    OFFSET  -3.717550   0.000000   0.000000
                                    CHANNELS 3 Zrotation Xrotation Yrotation
                                    JOINT RightFinger42
                                    {
                                        OFFSET  -1.858760   0.000000   0.000000
                                        CHANNELS 3 Zrotation Xrotation Yrotation
                                        End Site
                                        {
                                            OFFSET  -1.818440   0.000000   0.000000
                                        }
                                    }
                                }
                            }
                        }
                    }
                }
            }
        }
    }
    JOINT LeftHip
    {
        OFFSET   9.783030   0.000000   0.000000
        CHANNELS 3 Zrotation Xrotation Yrotation
        JOINT LeftKnee
        {
            OFFSET   0.000063 -41.789100   0.000608
            CHANNELS 3 Zrotation Xrotation Yrotation
            JOINT LeftAnkle
            {
                OFFSET   0.000048 -41.133200  -0.000184
                CHANNELS 3 Zrotation Xrotation Yrotation
                JOINT LeftToe
                {
                    OFFSET   0.000000  -6.358960  14.674500
                    CHANNELS 3 Zrotation Xrotation Yrotation
                    End Site
                    {
                        OFFSET   0.000000   0.000000   3.913200
                    }
                }
            }
        }
    }
    JOINT RightHip
    {
        OFFSET  -9.783030   0.000000   0.000000
        CHANNELS 3 Zrotation Xrotation Yrotation
        JOINT RightKnee
        {
            OFFSET   0.000071 -41.789100   0.001239
            CHANNELS 3 Zrotation Xrotation Yrotation
            JOINT RightAnkle
            {
                OFFSET   0.000037 -41.133200  -0.000166
                CHANNELS 3 Zrotation Xrotation Yrotation
                JOINT RightToe
                {
                    OFFSET   0.000000  -6.358960  14.674500
                    CHANNELS 3 Zrotation Xrotation Yrotation
                    End Site
                    {
                        OFFSET   0.000000   0.000000   3.913200
                    }
                }
            }
        }
    }
}
MOTION
Frames: 5
Frame Time:   0.016667
 -2.359010  89.511200   1.229660  -2.730180  -8.767640  -5.423430   0.803612   5.533040  -0.043837   1.622940  11.065000  -0.167245   2.062670  -1.542080   0.055274   3.395570  -3.114780   6.116260  -4.830010   0.023270   1.433100 -72.316600  25.106100  -3.631890  -1.935080  -7.766860 -18.703000  17.199600 -11.812800   7.368730  39.263500  33.666600 -58.611800 -33.419300  -0.005304  -0.003473 -11.719000   0.002406  -0.036585 -33.529400   8.200840 -12.150900 -28.149100   0.017069  -0.002334 -19.709100   0.012005   0.001392 -28.759000   1.581470  -2.863560 -42.529200   0.032541   0.007776 -28.324400   0.017746   0.013554 -28.715000   1.578860  -2.864990 -40.113900   0.016075   0.001438 -26.725200   0.009865   0.004313 -33.316300   0.607968  -0.924023 -49.960000   0.011373   0.006030 -33.287800   0.004482   0.004975  11.033300   1.682360   9.844230  64.767700  19.272500  -3.068150  -2.538840  -3.564900  15.266000 -14.203000 -12.943600  -5.383350 -40.486700  28.419000  55.477600  26.511200  -0.002510   0.000904   8.255570  -0.013433  -0.011658  31.677200   7.358490  11.716800  26.535800   0.004092   0.001448  18.563200   0.001525  -0.000322  28.366800   2.977240   5.492840  36.344600  -0.000106   0.000804  24.205500  -0.000939   0.000697  27.855500   1.714320   3.260360  31.396300   0.009406   0.000298  20.910000   0.002752   0.000431  34.277900   0.410601   0.603113  51.420200   0.000000   0.001335  34.245900   0.000271  -0.000265   2.392900  12.336900   3.874610   1.327630  -0.001002  10.078800  -2.779540  -4.079400   0.620566  -0.000000   0.000000  -0.000000   2.016060  11.462000  -1.211360   0.677784   0.708068  -7.849360  -1.018310  -4.171490   0.126949  -0.000000   0.000000   0.000000
 -2.342970  89.511200   1.244390  -2.731230  -8.787730  -5.416940   0.803770   5.548420  -0.043338   1.623280  11.095700  -0.166485   2.053370  -1.548220   0.055295   3.380300  -3.127370   6.133390  -4.836360   0.005876   1.421160 -72.299000  25.139000  -3.642180  -1.942560  -7.788490 -18.703700  17.197400 -11.811100   7.377670  39.262900  33.666600 -58.618700 -33.423600  -0.005314  -0.003477 -11.719200   0.002409  -0.041442 -33.527400   8.200830 -12.150900 -28.147400   0.025966  -0.013075 -19.709700   0.020050  -0.004781 -28.759000   1.581330  -2.865900 -42.530000   0.055430  -0.006217 -28.325000   0.036138   0.009478 -28.714900   1.578720  -2.867340 -40.114800   0.027365  -0.007929 -26.725800   0.018347   0.000197 -33.316800   0.607982  -0.924023 -49.964400   0.026630   0.001034 -33.288300   0.015026   0.005218  11.038700   1.647240   9.859930  64.729600  19.269300  -3.078860  -2.537480  -3.600670  15.249600 -14.212800 -12.931800  -5.397620 -40.497800  28.450500  55.476200  26.520300  -0.002505   0.000906   8.260160  -0.013435  -0.011658  31.667200   7.354440  11.716700  26.527400   0.004088   0.001452  18.563200   0.001524  -0.000305  28.369000   2.965930   5.472280  36.323600  -0.000110   0.000813  24.191500  -0.000944   0.000701  27.851300   1.714330   3.253010  31.370500   0.009404   0.000303  20.892800   0.002746   0.000436  34.265000   0.410602   0.603115  51.400800   0.000000   0.001339  34.233000   0.000272  -0.000249   2.377060  12.368700   3.887020   1.327020  -0.000925  10.074300  -2.775390  -4.080520   0.610145  -0.000000   0.000000  -0.000000   2.006730  11.504200  -1.222060   0.674987   0.687079  -7.877060  -1.007580  -4.175230   0.156040   0.000000   0.000000   0.000000
 -2.315940  89.511200   1.269490  -2.732720  -8.825240  -5.402400   0.804245   5.576140  -0.041869   1.624230  11.151100  -0.163986   2.036590  -1.559280   0.055316   3.352760  -3.149980   6.166730  -4.848980  -0.022136   1.399600 -72.262000  25.198300  -3.664090  -1.955680  -7.826400 -18.705200  17.193400 -11.806800   7.390160  39.263000  33.665500 -58.627100 -33.429000  -0.005324  -0.003481 -11.719400   0.002412  -0.046299 -33.524400   8.200830 -12.150900 -28.144500   0.034863  -0.028798 -19.710300   0.028095  -0.014289 -28.758900   1.581190  -2.870590 -42.530800   0.078319  -0.026564 -28.325500   0.054530   0.001889 -28.714800   1.578580  -2.872030 -40.115700   0.039320  -0.022286 -26.726400   0.029220  -0.006711 -33.317300   0.608011  -0.924023 -49.970700   0.048321  -0.007633 -33.288800   0.030556   0.005461  11.047300   1.591960   9.885980  64.660800  19.266000  -3.089570  -2.534180  -3.667240  15.217900 -14.234500 -12.909100  -5.428270 -40.510700  28.494700  55.484800  26.542900  -0.002496   0.000915   8.271470  -0.013436  -0.011657  31.657100   7.346710  11.716500  26.518800   0.004071   0.001462  18.563200   0.001518  -0.000266  28.372300   2.948420   5.440420  36.292800  -0.000121   0.000835  24.171000  -0.000958   0.000713  27.844900   1.714350   3.241420  31.332300   0.009396   0.000321  20.867300   0.002730   0.000447  34.246800   0.410603   0.603118  51.373400   0.000000   0.001353  34.214700   0.000278  -0.000209   2.353780  12.414900   3.908290   1.326330  -0.000383  10.064300  -2.771920  -4.088350   0.589312   0.000000   0.000000  -0.000000   1.992000  11.574900  -1.232880   0.670977   0.666055  -7.927450  -0.989141  -4.186690   0.196360   0.000000   0.000000   0.000000
 -2.294050  89.511200   1.291110  -2.733700  -8.863980  -5.384730   0.805106   5.603100  -0.039021   1.625820  11.205100  -0.158744   2.021690  -1.570770   0.055312   3.328290  -3.173300   6.200930  -4.862920  -0.042943   1.376630 -72.215000  25.256700  -3.691190  -1.968030  -7.861510 -18.708300  17.188500 -11.800200   7.395130  39.263300  33.663600 -58.628300 -33.430400  -0.005319  -0.003457 -11.718400   0.002394  -0.037343 -33.522300   8.203290 -12.154900 -28.143300   0.033170  -0.037988 -19.706200   0.027667  -0.020590 -28.758700   1.581690  -2.876570 -42.528500   0.073437  -0.037984 -28.324000   0.053501  -0.008089 -28.714600   1.579070  -2.878010 -40.115100   0.040098  -0.032873 -26.722000   0.032009  -0.013768 -33.315000   0.608051  -0.924020 -49.973400   0.058800  -0.017316 -33.286600   0.039958   0.005401  11.054500   1.553470   9.904570  64.597200  19.288300  -3.084780  -2.531750  -3.736200  15.187500 -14.264500 -12.884400  -5.470300 -40.507200  28.521200  55.511800  26.578400  -0.002491   0.000935   8.289230  -0.013435  -0.011649  31.659300   7.338250  11.705500  26.518600   0.004035   0.001478  18.563400   0.001508  -0.000211  28.372300   2.937000   5.419600  36.274400  -0.000140   0.000863  24.158700  -0.000980   0.000730  27.841600   1.712390   3.231860  31.309300   0.009383   0.000351  20.852000   0.002704   0.000466  34.238400   0.410603   0.602628  51.360800  -0.000000   0.001378  34.206300   0.000290  -0.000153   2.343450  12.429700   3.927010   1.318600   0.062351  10.051000  -2.777870  -4.127400   0.565270   0.000000   0.000000   0.000000   1.982490  11.632900  -1.224480   0.663720   0.666764  -7.978830  -0.973161  -4.208040   0.212184   0.000000   0.000000   0.000000
 -2.271040  89.511200   1.312630  -2.733720  -8.907020  -5.359000   0.806137   5.631740  -0.036071   1.627750  11.262400  -0.153336   2.002890  -1.581430   0.055279   3.297380  -3.195010   6.245960  -4.880130  -0.061678   1.356060 -72.161700  25.318400  -3.724790  -1.980760  -7.896950 -18.713500  17.185100 -11.792800   7.397130  39.258600  33.659700 -58.624700 -33.430600  -0.005296  -0.003418 -11.715300   0.002368  -0.024311 -33.517600   8.206730 -12.162800 -28.140000   0.029015  -0.042195 -19.698000   0.025421  -0.025298 -28.758500   1.582760  -2.882240 -42.520700   0.061992  -0.043051 -28.318800   0.048227  -0.014554 -28.714400   1.580130  -2.883680 -40.111100   0.040209  -0.038471 -26.714000   0.032408  -0.018031 -33.311200   0.608091  -0.924019 -49.974300   0.062845  -0.023329 -33.282700   0.044373   0.004978  11.063400   1.521010   9.926920  64.526100  19.322700  -3.073670  -2.523360  -3.811300  15.143400 -14.297300 -12.855800  -5.514420 -40.487700  28.537400  55.530800  26.618800  -0.002486   0.000957   8.309400  -0.013434  -0.011637  31.663100   7.329880  11.688300  26.518500   0.003989   0.001498  18.563800   0.001492  -0.000146  28.370900   2.927650   5.402470  36.265800  -0.000165   0.000900  24.153000  -0.001010   0.000753  27.839300   1.709680   3.226530  31.296900   0.009364   0.000391  20.843700   0.002669   0.000490  34.235400   0.410601   0.601766  51.356200   0.000000   0.001409  34.203200   0.000305  -0.000080   2.333590  12.452200   3.945450   1.310990   0.124627  10.033900  -2.784200  -4.159770   0.537287   0.000000   0.000000   0.000000   1.972170  11.689300  -1.210050   0.653086   0.672223  -8.030840  -0.956692  -4.233180   0.216783  -0.000000   0.000000   0.000000
